<svg width="16.500000" height="13.499817" viewBox="0 0 16.5 13.4998" fill="none" xmlns="http://www.w3.org/2000/svg" xmlns:xlink="http://www.w3.org/1999/xlink">
	<desc>
			Created with Pixso.
	</desc>
	<defs/>
	<path id="Path" d="M13.78 4.5L15.75 4.5" stroke="#19B150" stroke-opacity="1.000000" stroke-width="1.500000" stroke-linejoin="round" stroke-linecap="round"/>
	<path id="Path" d="M0.75 4.5L2.72 4.5" stroke="#19B150" stroke-opacity="1.000000" stroke-width="1.500000" stroke-linejoin="round" stroke-linecap="round"/>
	<path id="Path" d="M11.06 7.87L12.93 7.87" stroke="#19B150" stroke-opacity="1.000000" stroke-width="1.500000" stroke-linejoin="round" stroke-linecap="round"/>
	<path id="Path" d="M3.56 7.87L5.43 7.87" stroke="#19B150" stroke-opacity="1.000000" stroke-width="1.500000" stroke-linejoin="round" stroke-linecap="round"/>
	<path id="Path" d="M13.78 5.25L13.15 2.24C12.97 1.37 12.2 0.75 11.31 0.75L5.25 0.75C4.38 0.75 3.63 1.35 3.43 2.19L2.72 5.25" stroke="#19B150" stroke-opacity="1.000000" stroke-width="1.500000" stroke-linejoin="round" stroke-linecap="round"/>
	<path id="Path" d="M3.37 12.74C3.99 12.74 4.5 12.24 4.5 11.62L4.5 10.87L12 10.87L12 11.62C12 12.24 12.5 12.74 13.12 12.74L14.81 12.74C15.33 12.74 15.75 12.32 15.75 11.81L15.75 7.49C15.75 6.25 14.74 5.24 13.5 5.24L3 5.24C1.75 5.24 0.75 6.25 0.75 7.49L0.75 11.81C0.75 12.32 1.16 12.74 1.68 12.74L3.37 12.74Z" stroke="#19B150" stroke-opacity="1.000000" stroke-width="1.500000" stroke-linejoin="round"/>
</svg>
