<svg width="8.011719" height="8.011597" viewBox="0 0 8.01172 8.0116" fill="none" xmlns="http://www.w3.org/2000/svg" xmlns:xlink="http://www.w3.org/1999/xlink">
	<desc>
			Created with Pixso.
	</desc>
	<defs/>
	<path id="Vector" d="M7.71582 0.295807C7.62305 0.202057 7.51221 0.127686 7.39014 0.0769043C7.26855 0.0261536 7.1377 0 7.00586 0C6.87402 0 6.74316 0.0261536 6.62109 0.0769043C6.49951 0.127686 6.38867 0.202057 6.2959 0.295807L4.00586 2.59579L1.71582 0.295807C1.52734 0.107483 1.27197 0.00170898 1.00586 0.00170898C0.739258 0.00170898 0.483887 0.107483 0.295898 0.295807C0.107422 0.4841 0.00146484 0.739502 0.00146484 1.0058C0.00146484 1.27209 0.107422 1.5275 0.295898 1.71579L2.5957 4.0058L0.295898 6.29581C0.202148 6.38876 0.127441 6.49936 0.0771484 6.62122C0.0263672 6.74307 0 6.87378 0 7.0058C0 7.13782 0.0263672 7.26852 0.0771484 7.39038C0.127441 7.51224 0.202148 7.62283 0.295898 7.71579C0.388672 7.80954 0.499512 7.88391 0.621094 7.93469C0.743164 7.98547 0.874023 8.0116 1.00586 8.0116C1.1377 8.0116 1.26855 7.98547 1.39014 7.93469C1.51221 7.88391 1.62305 7.80954 1.71582 7.71579L4.00586 5.4158L6.2959 7.71579C6.38867 7.80954 6.49951 7.88391 6.62109 7.93469C6.74316 7.98547 6.87402 8.0116 7.00586 8.0116C7.1377 8.0116 7.26855 7.98547 7.39014 7.93469C7.51221 7.88391 7.62305 7.80954 7.71582 7.71579C7.80957 7.62283 7.88379 7.51224 7.93457 7.39038C7.98535 7.26852 8.01172 7.13782 8.01172 7.0058C8.01172 6.87378 7.98535 6.74307 7.93457 6.62122C7.88379 6.49936 7.80957 6.38876 7.71582 6.29581L5.41602 4.0058L7.71582 1.71579C7.80957 1.62283 7.88379 1.51224 7.93457 1.39038C7.98535 1.26852 8.01172 1.13782 8.01172 1.0058C8.01172 0.873779 7.98535 0.743073 7.93457 0.621216C7.88379 0.499359 7.80957 0.388763 7.71582 0.295807Z" fill-rule="nonzero" fill="#262626"/>
</svg>
