<svg width="24" height="24" viewBox="0 0 24 24" fill="none" xmlns="http://www.w3.org/2000/svg">
<path d="M19.8899 9.55001C19.8068 9.3851 19.6796 9.24642 19.5225 9.14934C19.3654 9.05226 19.1845 9.00057 18.9999 9.00001H13.9999V3.00001C14.0106 2.7807 13.9488 2.56394 13.8241 2.38321C13.6994 2.20248 13.5187 2.06782 13.3099 2.00001C13.1091 1.93396 12.8925 1.93321 12.6913 1.99789C12.4901 2.06257 12.3145 2.18934 12.1899 2.36001L4.18986 13.36C4.08963 13.5049 4.02944 13.6737 4.01539 13.8493C4.00134 14.0249 4.03393 14.2011 4.10986 14.36C4.17978 14.5418 4.30125 14.6991 4.45935 14.8128C4.61745 14.9265 4.80531 14.9916 4.99986 15H9.99986V21C10 21.2109 10.0668 21.4163 10.1908 21.5869C10.3147 21.7576 10.4894 21.8846 10.6899 21.95C10.7903 21.9812 10.8947 21.998 10.9999 22C11.1576 22.0004 11.3133 21.9635 11.4541 21.8922C11.5948 21.821 11.7168 21.7174 11.8099 21.59L19.8099 10.59C19.9176 10.4408 19.9821 10.2648 19.9962 10.0813C20.0103 9.89777 19.9735 9.71394 19.8899 9.55001V9.55001ZM11.9999 17.92V14C11.9999 13.7348 11.8945 13.4804 11.707 13.2929C11.5194 13.1054 11.2651 13 10.9999 13H6.99986L11.9999 6.08001V10C11.9999 10.2652 12.1052 10.5196 12.2928 10.7071C12.4803 10.8947 12.7346 11 12.9999 11H16.9999L11.9999 17.92Z" fill="#262626"/>
</svg>
