<svg width="72.000000" height="72.000000" viewBox="0 0 72 72" fill="none" xmlns="http://www.w3.org/2000/svg" xmlns:xlink="http://www.w3.org/1999/xlink">
	<defs>
		<clipPath id="clip3035_346712">
			<rect id="24 Filled / Check - Circle" width="72.000000" height="72.000000" fill="white" fill-opacity="0"/>
		</clipPath>
		<clipPath id="clip3035_346710">
			<rect id="Icon" width="72.000000" height="72.000000" fill="white" fill-opacity="0"/>
		</clipPath>
	</defs>
	<g clip-path="url(#clip3035_346710)">
		<ellipse id="Ellipse " cx="36.000000" cy="36.000000" rx="15.000000" ry="27.000000" fill="#FFFFFF" fill-opacity="1.000000"/>
		<g clip-path="url(#clip3035_346712)">
			<path id="Union" d="M6 36C6 19.5 19.5 6 36 6C52.5 6 66 19.5 66 36C66 52.5 52.5 66 36 66C19.5 66 6 52.5 6 36ZM34.2 45.3008L48.6 30.9004C49.8 29.6992 49.8 27.9004 48.6 26.6992C47.4 25.5 45.6 25.5 44.4 26.6992L32.1 39L27.6 34.5C26.4 33.3008 24.6 33.3008 23.4 34.5C22.2 35.6992 22.2 37.5 23.4 38.6992L30 45.3008C31.2 46.5 33 46.5 34.2 45.3008Z" clip-rule="evenodd" fill="#10BF6A" fill-opacity="1.000000" fill-rule="evenodd"/>
		</g>
	</g>
</svg>
