<svg width="20" height="20" viewBox="0 0 20 20" fill="none" xmlns="http://www.w3.org/2000/svg">
<path d="M17.6562 0H2.34375C1.05133 0 0 1.05133 0 2.34375V17.6562C0 18.9487 1.05133 20 2.34375 20H17.6562C18.9487 20 20 18.9487 20 17.6562V2.34375C20 1.05133 18.9487 0 17.6562 0ZM18.4375 17.6562C18.4375 18.087 18.087 18.4375 17.6562 18.4375H2.34375C1.91299 18.4375 1.5625 18.087 1.5625 17.6562V2.34375C1.5625 1.91299 1.91299 1.5625 2.34375 1.5625H17.6562C18.087 1.5625 18.4375 1.91299 18.4375 2.34375V17.6562ZM10 2.87109C6.33835 2.87109 3.35938 5.85007 3.35938 9.51172C3.35938 9.94324 3.70911 10.293 4.14062 10.293H15.8594C16.2909 10.293 16.6406 9.94324 16.6406 9.51172C16.6406 5.85007 13.6617 2.87109 10 2.87109ZM10.7812 8.73047V6.77734C10.7812 6.34583 10.4315 5.99609 10 5.99609C9.56848 5.99609 9.21875 6.34583 9.21875 6.77734V8.73047H4.98184C5.35873 6.2999 7.46552 4.43359 10 4.43359C12.5345 4.43359 14.6413 6.2999 15.0182 8.73047H10.7812Z" fill="#262626"/>
</svg>
