<svg width="20" height="21" viewBox="0 0 20 21" fill="none" xmlns="http://www.w3.org/2000/svg">
<g clip-path="url(#clip0_50762_730039)">
<path d="M16.6666 7.01355L11.6666 2.63022C11.2083 2.22025 10.6149 1.99361 9.99996 1.99361C9.38501 1.99361 8.79164 2.22025 8.33329 2.63022L3.33329 7.01355C3.0686 7.25028 2.85737 7.54068 2.71368 7.86542C2.56999 8.19016 2.49713 8.54178 2.49996 8.89688V16.1802C2.49996 16.8433 2.76335 17.4791 3.23219 17.948C3.70103 18.4168 4.33692 18.6802 4.99996 18.6802H15C15.663 18.6802 16.2989 18.4168 16.7677 17.948C17.2366 17.4791 17.5 16.8433 17.5 16.1802V8.88855C17.5016 8.53485 17.4282 8.18483 17.2845 7.86162C17.1409 7.5384 16.9303 7.24935 16.6666 7.01355V7.01355ZM11.6666 17.0135H8.33329V12.8469C8.33329 12.6259 8.42109 12.4139 8.57737 12.2576C8.73365 12.1013 8.94561 12.0135 9.16662 12.0135H10.8333C11.0543 12.0135 11.2663 12.1013 11.4225 12.2576C11.5788 12.4139 11.6666 12.6259 11.6666 12.8469V17.0135ZM15.8333 16.1802C15.8333 16.4012 15.7455 16.6132 15.5892 16.7695C15.4329 16.9258 15.221 17.0135 15 17.0135H13.3333V12.8469C13.3333 12.1838 13.0699 11.548 12.6011 11.0791C12.1322 10.6103 11.4963 10.3469 10.8333 10.3469H9.16662C8.50358 10.3469 7.8677 10.6103 7.39886 11.0791C6.93002 11.548 6.66662 12.1838 6.66662 12.8469V17.0135H4.99996C4.77894 17.0135 4.56698 16.9258 4.4107 16.7695C4.25442 16.6132 4.16662 16.4012 4.16662 16.1802V8.88855C4.16677 8.77023 4.19212 8.6533 4.24097 8.54553C4.28982 8.43777 4.36107 8.34164 4.44996 8.26355L9.44996 3.88855C9.60203 3.75495 9.79753 3.68127 9.99996 3.68127C10.2024 3.68127 10.3979 3.75495 10.55 3.88855L15.55 8.26355C15.6388 8.34164 15.7101 8.43777 15.7589 8.54553C15.8078 8.6533 15.8331 8.77023 15.8333 8.88855V16.1802Z" fill="#737373"/>
</g>
<defs>
<clipPath id="clip0_50762_730039">
<rect width="20" height="20" fill="white" transform="translate(0 0.346878)"/>
</clipPath>
</defs>
</svg>
